<svg xmlns="http://www.w3.org/2000/svg" viewBox="0 0 1504.47 175.31"><defs><style>.cls-1{fill:#0e4c87;}.cls-2{fill:#2070a6;}</style></defs><title>fysioenergy-blaa</title><g id="Layer_2" data-name="Layer 2"><g id="Layer_1-2" data-name="Layer 1"><polygon class="cls-1" points="0 172.19 44.74 172.19 44.74 110.28 100.93 110.28 100.93 72.83 44.74 72.83 44.74 40.58 110.29 40.58 110.29 3.12 0 3.12 0 172.19"/><path class="cls-1" d="M224.22,3.12,211.74,38.5q-3.39,9.61-6.64,18.72t-6.63,19h-1l-6.5-19q-3.12-9.11-6.24-18.72L172.2,3.12H124.34l51,110.81v58.26h44.74V113.93L271,3.12Z"/><path class="cls-1" d="M356.62,74.91l-20.55-8.07q-11.7-4.41-18.33-7.67t-6.64-9.23a9.4,9.4,0,0,1,4.68-8.58q4.68-2.86,13-2.86a46.68,46.68,0,0,1,17.3,3.12,81.23,81.23,0,0,1,16.52,9.1L385,22.63A72.48,72.48,0,0,0,358.31,5.46,85.67,85.67,0,0,0,328.79,0a74.5,74.5,0,0,0-25.36,4.16,62.62,62.62,0,0,0-19.9,11.32,52.51,52.51,0,0,0-13,16.64,45.59,45.59,0,0,0-4.68,20.43,48.37,48.37,0,0,0,2.74,16.64A46.59,46.59,0,0,0,276,82.59a51.14,51.14,0,0,0,10.92,10.14,62.36,62.36,0,0,0,13,6.89L321,108.46q5.46,2.08,9.62,3.77a51.85,51.85,0,0,1,7.15,3.52,16.07,16.07,0,0,1,4.55,3.9,8.38,8.38,0,0,1,1.56,5.21,10.11,10.11,0,0,1-4.54,8.84c-3,2.07-7.94,3.12-14.7,3.12a50.35,50.35,0,0,1-19.9-4.55,85.93,85.93,0,0,1-19.64-11.84L259.6,151.12a88.12,88.12,0,0,0,30.82,18.34,101.83,101.83,0,0,0,33.17,5.85q15.86,0,28.09-4.42a63.93,63.93,0,0,0,20.68-11.84,50.12,50.12,0,0,0,17.29-37.84q0-17.68-8.58-28.88T356.62,74.91Z"/><rect class="cls-1" x="404.74" y="3.12" width="44.74" height="169.07"/><path class="cls-1" d="M578.23,5.72a92.71,92.71,0,0,0-64.12,0A67,67,0,0,0,489.4,22.49a77.31,77.31,0,0,0-16,27.32q-5.72,16.26-5.72,37.07t5.72,37.33a79.62,79.62,0,0,0,16,27.82,68.17,68.17,0,0,0,24.71,17.3,88.93,88.93,0,0,0,64.12,0c.13-.05.24-.12.37-.18a9.54,9.54,0,0,1,.55-2.13c.86-2,1.05-9.92,2.5-13.43s1.83-5.39,4.38-8.71,5.59-6.55,6.21-6.75,2.17-.38,2.07-.62-2.12-3.37-4.43-7.27-4.78-6.44-8-14.08a97.31,97.31,0,0,1-4.22-13.6c-1.35,8.19-3.72,15.24-7.37,20.86q-8.71,13.41-24.06,13.4t-24.06-13.4q-8.73-13.4-8.72-36.54t8.72-35.77q8.7-12.61,24.06-12.61T570.3,51.11c5.36,7.77,8.14,18.68,8.55,32.45,2.61-3,8.56-10.71,14.72-14.39s9.89-5.2,12.33-7.39,8.28-10.52,12.71-12.52l.12,0a78.38,78.38,0,0,0-15.66-26.58A65.92,65.92,0,0,0,578.23,5.72Z"/><path class="cls-2" d="M687.74,130.23c-1.86,1.19-4.93,3.11-7.43,3.57-3.13.58-5.78-.1-7.37.63a32.85,32.85,0,0,1-10.3,3c-6.07.91-10.45,2.79-15.55,2.65-1.41,0-2.79-.16-4.09-.3v25.44a85.13,85.13,0,0,1,7.65,5.29c.55.4,1.42,1.07,2.2,1.65h102V134.74H687.74Z"/><path class="cls-2" d="M645.61,5.76a7.13,7.13,0,0,1,2,.38,2.85,2.85,0,0,1,.31.12l.14,0,1.22-.16a12.55,12.55,0,0,1,2.77-.8,8.77,8.77,0,0,1,3.46.39,7,7,0,0,1,2.66,1.46,2.11,2.11,0,0,1,.31.36,12.89,12.89,0,0,1,2.08-.22,13.43,13.43,0,0,1,3.35.3,4.78,4.78,0,0,1,2.86,1.9,4.79,4.79,0,0,1,.61,1.47,4,4,0,0,1,.09.45s0,0,.05,0a7.15,7.15,0,0,1,1.18,1,5.85,5.85,0,0,1,.82,1.25A4.69,4.69,0,0,1,670,15a7.58,7.58,0,0,1,0,1.24c0,.15,0,.3,0,.44a5,5,0,0,1,.16.75,3.21,3.21,0,0,1-.06,1.16c.06.09.12.17.17.26a5.94,5.94,0,0,1,.67,1.61,3.23,3.23,0,0,1-.09,1.77,2.66,2.66,0,0,1-.07,1,4.9,4.9,0,0,1-1.47,2.43,1.83,1.83,0,0,1-1.09.45c.45,1.21.89,2.6.44,3.6-.68,1.49-2,2.89-1.06,4.62s2.93,3.66,2.93,5-3.8,1.11-3.9,2.5.34,2.12,0,2.65a1.93,1.93,0,0,1-1.15.68,1.6,1.6,0,0,1,.48,1.92c-.58,1.06-1.64.68-1.78,2.26s-.29,4.44-3.13,4.92-5.44-.63-6.21.14,0,3.13-.91,4.24-4.39,1.83-4.1,5,2.7,9.34,3.37,12.13,3.71,12.71,4.09,16.71-.14,9.24-2.31,12.56-4.24,4.53-4.72,7.18a40.86,40.86,0,0,1-1.73,7.85c-1,2.6-1.73,4.81-1.4,5.2a22.3,22.3,0,0,0,8.58,1.83c3-.2,11.55-1.35,12.9-3s3.56-7.46,4.43-9.29,2.74-3.56,3.13-4.57,2.79-3.13,3.37-4.24,2.09-1.06,2,.86,0,2.32-1.14,4.05-3.08,4-2.6,4.77,2.12.86,4,.33c1.37-.38,4-1.58,6-2.36v-9.11h55.14V67.11H687.74V40.57h64.5V3.12H643V6.25c.08,0,.13-.1.22-.13A7.42,7.42,0,0,1,645.61,5.76Z"/><path class="cls-2" d="M870.33,52q0,7.8.66,16.26t1.43,16.9q.76,8.46,1.82,16.52t1.82,14.82h-1l-16.13-38L821.43,3.12H775.65V172.19h42.66V123.3a272.1,272.1,0,0,0-2.08-32.78q-2.09-17.17-3.64-31.74h1L829.76,96.5l37.45,75.69H913V3.12H870.33Z"/><polygon class="cls-2" points="983.21 104.56 1038.37 104.56 1038.37 67.11 983.21 67.11 983.21 40.58 1047.72 40.58 1047.72 3.12 938.47 3.12 938.47 172.19 1050.33 172.19 1050.33 134.74 983.21 134.74 983.21 104.56"/><path class="cls-2" d="M1195.34,87.92q7.41-12,7.41-30.17,0-15.87-5.47-26.41a44.29,44.29,0,0,0-14.69-16.77A60.26,60.26,0,0,0,1161,5.72a125.63,125.63,0,0,0-25.88-2.6h-64V172.19h44.74v-56.7H1133l29.14,56.7h49.94l-36.68-65.55A52.28,52.28,0,0,0,1195.34,87.92ZM1132,80.12h-16.12V38.5H1132q13.26,0,20.16,4.15c4.59,2.79,6.9,7.81,6.9,15.1Q1159.06,80.11,1132,80.12Z"/><path class="cls-2" d="M1293.78,110.28h25V133.7a17.2,17.2,0,0,1-5.85,2.33,32.37,32.37,0,0,1-7.15.79q-22.9,0-33.56-12.75t-10.67-36.68a65.59,65.59,0,0,1,3-20.55A43.67,43.67,0,0,1,1273,51.5a38.22,38.22,0,0,1,12.74-9.62,37.16,37.16,0,0,1,15.87-3.38q10.15,0,16.52,3a54.6,54.6,0,0,1,12.61,8.46l24.46-27.57a84.1,84.1,0,0,0-22.63-15.74Q1319,0,1301.07,0a90.41,90.41,0,0,0-32.9,6,79,79,0,0,0-45.65,45.12q-6.78,16.53-6.76,37.84,0,21.6,6.63,37.85a76,76,0,0,0,18.07,27.05,73.91,73.91,0,0,0,26.8,16.13,99.29,99.29,0,0,0,32.77,5.33,90.49,90.49,0,0,0,33.43-6.1q15.46-6.12,24.84-14.7V73.87h-64.52Z"/><path class="cls-2" d="M1457.66,3.12,1445.18,38.5q-3.39,9.61-6.64,18.72t-6.63,19h-1q-3.39-9.87-6.5-19t-6.24-18.72L1405.64,3.12h-47.87l51,110.81v58.26h44.74V113.93l51-110.81Z"/><path class="cls-1" d="M596.33,93.63c-.44.25.9,3.85,1.74,9.11s1.41,12.84,1.67,14.71,2.31,6.16,2.31,6.16.7-1.73,1.41-3.66a62.39,62.39,0,0,0,2.38-8.54c.83-3.92.32-8.6,1.09-14.12s.9-8,.9-8A46.43,46.43,0,0,1,603,91.7,36,36,0,0,1,596.33,93.63Z"/></g></g></svg>