<?xml version="1.0" encoding="utf-8"?>
<!-- Generator: Adobe Illustrator 23.1.1, SVG Export Plug-In . SVG Version: 6.00 Build 0)  -->
<svg version="1.1" xmlns="http://www.w3.org/2000/svg" xmlns:xlink="http://www.w3.org/1999/xlink" x="0px" y="0px"
	 viewBox="0 0 111.9 111.9" style="enable-background:new 0 0 111.9 111.9;" xml:space="preserve">
<style type="text/css">
	.st0{fill:none;}
	.st1{fill:#FFFFFF;}
	.st2{fill:#A1241E;}
</style>
<g id="Lag_1">
	<g>
		<path class="st0" d="M42.3,19.7c2,0,2-2.8,0-2.8C40.3,16.9,40.3,19.7,42.3,19.7z"/>
		<path class="st0" d="M45.5,25.1c2,0,2-2.8,0-2.8C43.4,22.3,43.4,25.1,45.5,25.1z"/>
		<path class="st0" d="M49.2,19.8c2,0,2-2.8,0-2.8C47.2,17,47.2,19.8,49.2,19.8z"/>
		<path class="st0" d="M52.5,25.1c2,0,2-2.8,0-2.8C50.5,22.3,50.5,25.1,52.5,25.1z"/>
		<path class="st0" d="M39,25.1c2,0,2-2.8,0-2.8C37,22.3,37,25.1,39,25.1z"/>
		<path class="st0" d="M32.6,25.1c2,0,2-2.8,0-2.8C30.5,22.3,30.5,25.1,32.6,25.1z"/>
		<path class="st0" d="M56.1,19.8c2,0,2-2.8,0-2.8C54.1,17,54.1,19.8,56.1,19.8z"/>
		<path class="st0" d="M35.7,19.7c2,0,2-2.8,0-2.8C33.7,16.9,33.7,19.7,35.7,19.7z"/>
		<path class="st0" d="M70,19.7c2,0,2-2.8,0-2.8C68,16.9,68,19.7,70,19.7z"/>
		<path class="st0" d="M81.5,25.1c2,0,2-2.8,0-2.8C79.4,22.3,79.4,25.1,81.5,25.1z"/>
		<path class="st0" d="M74.1,25.1c2,0,2-2.8,0-2.8C72,22.3,72,25.1,74.1,25.1z"/>
		<path class="st0" d="M77.5,19.8c2,0,2-2.8,0-2.8C75.5,17,75.5,19.8,77.5,19.8z"/>
		<path class="st0" d="M59.5,25.1c2,0,2-2.8,0-2.8C57.4,22.3,57.4,25.1,59.5,25.1z"/>
		<path class="st0" d="M66.5,25.1c2,0,2-2.8,0-2.8S64.5,25.1,66.5,25.1z"/>
		<path class="st0" d="M62.9,19.8c2,0,2-2.8,0-2.8C60.9,17,60.9,19.8,62.9,19.8z"/>
		<path class="st1" d="M16.9,88.3c-2.5,0-4.6,2-4.6,4.4c0,0,0,0,0,0.1V98c0,3.9,3.4,7,7.5,7h73.5c4.2,0,7.5-3.1,7.5-7v-5.3
			c0-0.5,0-0.9-0.1-1.4c-0.4-1.8-2-3.1-3.9-3.1L16.9,88.3z"/>
		<path class="st1" d="M10.8,68.3h90.5c2.1,0,3.8-1.6,3.8-3.5v-4.4c0-1.9-1.7-3.5-3.8-3.5H10.8c-2.1,0-3.8,1.6-3.8,3.5v4.4
			C7.1,66.7,8.7,68.3,10.8,68.3z"/>
		<path class="st2" d="M62.5,41.6c-2.1,0-3.8,1.6-3.8,3.5v4.1c0,1.9,1.7,3.5,3.8,3.5h38.7c2.1,0,3.8-1.6,3.8-3.5v-4.1
			c0-1.9-1.7-3.5-3.8-3.5H62.5z"/>
		<path class="st2" d="M10.9,52.7h38.7c2.1,0,3.8-1.6,3.8-3.5v-4.1c0-1.9-1.7-3.5-3.8-3.5H10.9c-2.1,0-3.8,1.6-3.8,3.5v4.1
			C7.2,51.2,8.9,52.7,10.9,52.7z"/>
		<path class="st1" d="M16.2,37.6h40.8H57h40.8c3.4-0.4,3.6-3.5,3.6-3.5C98.5,6.7,67.4,4.5,57,4.5h-0.1C46.6,4.5,15.4,6.7,12.6,34
			C12.6,34,12.8,37.2,16.2,37.6z M81.5,22.3c2,0,2,2.8,0,2.8C79.4,25.1,79.4,22.3,81.5,22.3z M77.5,17c2,0,2,2.8,0,2.8
			C75.5,19.8,75.5,17,77.5,17z M74.1,22.3c2,0,2,2.8,0,2.8C72,25.1,72,22.3,74.1,22.3z M70,16.9c2,0,2,2.8,0,2.8
			C68,19.7,68,16.9,70,16.9z M66.5,22.3c2,0,2,2.8,0,2.8S64.5,22.3,66.5,22.3z M62.9,17c2,0,2,2.8,0,2.8C60.9,19.8,60.9,17,62.9,17z
			 M59.5,22.3c2,0,2,2.8,0,2.8C57.4,25.1,57.4,22.3,59.5,22.3z M56.1,17c2,0,2,2.8,0,2.8C54.1,19.8,54.1,17,56.1,17z M52.5,22.3
			c2,0,2,2.8,0,2.8C50.5,25.1,50.5,22.3,52.5,22.3z M49.2,17c2,0,2,2.8,0,2.8C47.2,19.8,47.2,17,49.2,17z M45.5,22.3
			c2,0,2,2.8,0,2.8C43.4,25.1,43.4,22.3,45.5,22.3z M42.3,16.9c2,0,2,2.8,0,2.8C40.3,19.7,40.3,16.9,42.3,16.9z M39,22.3
			c2,0,2,2.8,0,2.8C37,25.1,37,22.3,39,22.3z M35.7,16.9c2,0,2,2.8,0,2.8C33.7,19.7,33.7,16.9,35.7,16.9z M32.6,22.3
			c2,0,2,2.8,0,2.8C30.5,25.1,30.5,22.3,32.6,22.3z"/>
	</g>
	<path class="st1" d="M101.1,72.1c-1.2,0-2.2,0.6-3,1.6c-0.8-1-1.8-1.6-3-1.6c-1.2,0-2.2,0.6-3,1.6c-0.8-1-1.8-1.6-3-1.6
		c-1.2,0-2.2,0.6-3,1.6c-0.8-1-1.8-1.6-3-1.6c-1.2,0-2.2,0.6-3,1.6c-0.8-1-1.8-1.6-3-1.6c-1.2,0-2.2,0.6-3,1.6c-0.8-1-1.8-1.6-3-1.6
		s-2.2,0.6-3,1.6c-0.8-1-1.8-1.6-3-1.6c-1.2,0-2.2,0.6-3,1.6c-0.8-1-1.8-1.6-3-1.6c-1.2,0-2.2,0.6-3,1.6c-0.8-1-1.8-1.6-3-1.6
		c-1.2,0-2.2,0.6-3,1.6c-0.8-1-1.8-1.6-3-1.6c-1.2,0-2.2,0.6-3,1.6c-0.8-1-1.8-1.6-3-1.6c-1.2,0-2.2,0.6-3,1.6c-0.8-1-1.8-1.6-3-1.6
		c-1.2,0-2.2,0.6-3,1.6c-0.8-1-1.8-1.6-3-1.6c-1.2,0-2.2,0.6-3,1.6c-0.8-1-1.8-1.6-3-1.6c-1.2,0-2.2,0.6-3,1.6c-0.8-1-1.8-1.6-3-1.6
		c-1.2,0-2.2,0.6-3,1.6c-0.8-1-1.8-1.6-3-1.6c-2.5,0-4.5,2.8-4.5,6.2c0,3.4,2,6.2,4.5,6.2c1.2,0,2.2-0.6,3-1.6c0.8,1,1.8,1.6,3,1.6
		c1.2,0,2.2-0.6,3-1.6c0.8,1,1.8,1.6,3,1.6c1.2,0,2.2-0.6,3-1.6c0.8,1,1.8,1.6,3,1.6c1.2,0,2.2-0.6,3-1.6c0.8,1,1.8,1.6,3,1.6
		c1.2,0,2.2-0.6,3-1.6c0.8,1,1.8,1.6,3,1.6c1.2,0,2.2-0.6,3-1.6c0.8,1,1.8,1.6,3,1.6c1.2,0,2.2-0.6,3-1.6c0.8,1,1.8,1.6,3,1.6
		c1.2,0,2.2-0.6,3-1.6c0.8,1,1.8,1.6,3,1.6c1.2,0,2.2-0.6,3-1.6c0.8,1,1.8,1.6,3,1.6c1.2,0,2.2-0.6,3-1.6c0.8,1,1.8,1.6,3,1.6
		s2.2-0.6,3-1.6c0.8,1,1.8,1.6,3,1.6c1.2,0,2.2-0.6,3-1.6c0.8,1,1.8,1.6,3,1.6c1.2,0,2.2-0.6,3-1.6c0.8,1,1.8,1.6,3,1.6
		c1.2,0,2.2-0.6,3-1.6c0.8,1,1.8,1.6,3,1.6c1.2,0,2.2-0.6,3-1.6c0.8,1,1.8,1.6,3,1.6c2.5,0,4.5-2.8,4.5-6.2
		C105.6,74.8,103.6,72.1,101.1,72.1z"/>
</g>
<g id="Lag_2">
</g>
</svg>
